<mxfile host="app.diagrams.net" modified="2023-12-10T23:42:59.020Z" agent="Mozilla/5.0 (Windows NT 10.0; Win64; x64) AppleWebKit/537.36 (KHTML, like Gecko) Chrome/120.0.0.0 Safari/537.36" etag="umnKPvCByKezlTxMugZG" version="22.1.7" type="github">
  <diagram name="Page-1" id="ThI0r7UXNl11FDjZUg-2">
    <mxGraphModel dx="1120" dy="808" grid="1" gridSize="10" guides="1" tooltips="1" connect="1" arrows="1" fold="1" page="1" pageScale="1" pageWidth="827" pageHeight="1169" math="0" shadow="0">
      <root>
        <mxCell id="0" />
        <mxCell id="1" parent="0" />
        <mxCell id="2kMPGm9N3gT2Wh9u5VH--4" value="" style="rounded=0;whiteSpace=wrap;html=1;" vertex="1" parent="1">
          <mxGeometry x="210" y="90" width="600" height="820" as="geometry" />
        </mxCell>
        <mxCell id="2kMPGm9N3gT2Wh9u5VH--5" value="" style="group" vertex="1" connectable="0" parent="1">
          <mxGeometry x="40" y="480" width="50" height="60" as="geometry" />
        </mxCell>
        <mxCell id="2kMPGm9N3gT2Wh9u5VH--1" value="" style="rounded=0;whiteSpace=wrap;html=1;" vertex="1" parent="2kMPGm9N3gT2Wh9u5VH--5">
          <mxGeometry width="50" height="60" as="geometry" />
        </mxCell>
        <mxCell id="2kMPGm9N3gT2Wh9u5VH--2" value="user" style="html=1;verticalLabelPosition=bottom;align=center;labelBackgroundColor=#ffffff;verticalAlign=top;strokeWidth=2;strokeColor=#0080F0;shadow=0;dashed=0;shape=mxgraph.ios7.icons.user;" vertex="1" parent="2kMPGm9N3gT2Wh9u5VH--5">
          <mxGeometry x="10" y="10" width="25" height="25" as="geometry" />
        </mxCell>
        <mxCell id="2kMPGm9N3gT2Wh9u5VH--8" value="" style="endArrow=classic;startArrow=classic;html=1;rounded=0;exitX=1;exitY=0.5;exitDx=0;exitDy=0;entryX=-0.003;entryY=0.513;entryDx=0;entryDy=0;entryPerimeter=0;" edge="1" parent="1" source="2kMPGm9N3gT2Wh9u5VH--1" target="2kMPGm9N3gT2Wh9u5VH--4">
          <mxGeometry width="50" height="50" relative="1" as="geometry">
            <mxPoint x="130" y="535" as="sourcePoint" />
            <mxPoint x="180" y="485" as="targetPoint" />
          </mxGeometry>
        </mxCell>
        <mxCell id="2kMPGm9N3gT2Wh9u5VH--9" value="&lt;font style=&quot;font-size: 20px;&quot;&gt;&lt;b&gt;client side&lt;/b&gt;&lt;/font&gt;" style="rounded=0;whiteSpace=wrap;html=1;" vertex="1" parent="1">
          <mxGeometry x="280" y="180" width="120" height="60" as="geometry" />
        </mxCell>
      </root>
    </mxGraphModel>
  </diagram>
</mxfile>
